<svg viewBox="0 0 2270 1024" xmlns="http://www.w3.org/2000/svg">
  <defs>
    <linearGradient id="cloud4-grad" x1="0%" y1="0%" x2="80%" y2="100%">
      <stop offset="0%" stop-color="#ffffff" stop-opacity="1" />
      <stop offset="50%" stop-color="#ffffff" stop-opacity="1" />
      <stop offset="100%" stop-color="#ffffff" stop-opacity="1" />
    </linearGradient>
  </defs>
  <path d="M928.664049 401.731913c44.796411 79.542344-2.584408 186.364554 79.255188 277.106001 73.512058 81.55244 215.654515 140.706674 328.794167 167.699383-116.58553 16.655076-350.905216 2.584408-466.629276-27.279866-225.130679-58.579921-406.900729-225.130679-381.343803-316.733595 18.665171-66.333146 48.529445-93.900168 108.832305-85.859787 45.65788-67.768929 135.825014-69.491868 183.780146-33.597308 54.846887-51.975322 124.625911-20.962423 147.024117 18.665172z" fill="url(#cloud4-grad)" />
  <path d="M1074.252384 50.826697c123.190129 17.516545 152.767246 117.159843 178.324172 191.53337 180.908581-4.594504 323.912507 122.32866 321.615256 232.309591-5.168817 244.657319-216.803141 265.906898-316.159283 189.236119-56.28267-43.647785-63.174425-83.275379-25.26977-150.182838 26.418396-46.232193 101.653393-12.060572 135.537858-20.38811-123.190129-119.457095-273.372967 51.688166-164.540662 173.155356 207.90129 232.596747 722.198542-151.905777 1066.499159-191.533371-90.167134 43.647785-256.143578 174.591139-313.86203 204.742569-78.393718 40.201907-218.52608 151.905777-310.703309 199.573752-157.074593 81.55244-389.67134 146.162647-576.897364 143.291083-159.946158-2.584408-397.711722-67.481772-579.768929-258.727987-70.066181-73.799215-96.484577-97.346046-42.212002-217.951767 139.558048 321.040942 492.186203 350.905216 806.335389 344.87493 134.963545-2.584408 295.484016-74.947841 388.235558-101.653393-269.639933 76.67078-674.24341-27.567022-645.814918-305.821649 8.040381-78.106562-77.245093-236.329781-215.367359-158.510376-77.819405-26.131239-164.540662-19.239484-202.732473 37.330343-66.333146-18.378015-114.001122 74.947841-132.666293 144.726864-6.891755-29.864274-16.655076-105.673584-41.063376-130.369041-45.083567-45.65788-138.409422-65.471677-204.742569-3.445877 74.373528-10.62479 215.080202-0.287156 205.029725 146.73696-9.476164 138.409422-108.832305 180.047112-239.488502 115.149748C74.947841 589.819405 13.783511 508.266966 4.307347 422.407179-21.249579 194.692092 126.34885 118.595625 324.773976 151.044307c147.024117-218.238923 331.091419-171.145261 548.75603-27.279865 53.123948-28.715648 128.646102-83.275379 200.722378-72.937745z" fill="url(#cloud4-grad)" />
</svg>
