<svg viewBox="0 0 2378 1024" xmlns="http://www.w3.org/2000/svg">
  <defs>
    <linearGradient id="cloud2-grad" x1="0%" y1="0%" x2="100%" y2="80%">
      <stop offset="0%" stop-color="#ffffff" stop-opacity="1" />
      <stop offset="50%" stop-color="#ffffff" stop-opacity="1" />
      <stop offset="100%" stop-color="#ffffff" stop-opacity="1" />
    </linearGradient>
  </defs>
  <path d="M967.206358 417.824727c-73.371165-153.808815-307.316928-102.388859-340.243741 30.821903-82.39221 10.674903-120.73165 108.70359-111.109203 160.724949 13.230866 71.566956 84.797822 114.56727 158.469688 75.927128 107.350434 218.910688 273.48801 261.610301 545.622863 261.760651-327.313577 65.853627-443.234003 2.255261-557.350221-105.245523-86.301329-81.339754-198.011934-132.308658-267.62433-124.039367-133.210762 15.786828-242.215054 79.685896-167.490733 165.385822-50.968903-141.329703 156.364777-125.242173 166.438277-15.636477 8.870694 96.52518-89.308344 166.438277-211.393151 155.312322C21.199455 1008.101762 1.202806 806.63176 51.269605 739.124274c-149.598994-119.979896 68.259239-265.820121 148.095486-193.802113 53.073814 47.811538 115.168673 46.759082 159.371792 40.14365 58.185739-8.720343 141.480053-45.556276 142.382158-115.018322 1.503507-130.504449-125.242173-121.784105-145.990576-87.654486 52.32206-12.779814 123.287613 7.667888 120.882001 86.902732-2.856664 90.661501-183.12721 123.437964-228.382785 51.419956-45.255575-72.018008-44.804523-184.330016 91.262904-204.928069-50.3675-87.353784 85.549575-228.533136 211.2428-167.641084C597.794572 3.758769 799.865976-64.801172 929.468321 80.888702c74.724321-56.982933 174.106166-38.18909 202.522457 69.762747 28.566642 108.853941-17.440687 175.910375-100.885352 176.812479-61.493456 0.751754-136.969531-107.801486-11.426657-160.574598-75.626426-3.758769-114.56727 63.899068-81.039053 133.210762 16.538582 34.27997 59.689247 62.996963 118.476389 54.27662 80.588001-12.02806 108.70359-65.252224 113.364464-136.969531 8.569993-130.053397 144.78777-87.804837 158.770389-30.370851 114.867971-56.982933 239.659091 28.867344 185.232121 169.445292 133.812165-18.793843 189.742643 142.081456 93.969217 204.176315-95.623075 62.094859-181.623703 27.664538-190.344046-31.122605-11.426657-76.227829 46.007329-106.297978 90.811851-84.797821 34.430321 16.538582 47.059784 48.412941 22.853314 73.822217 49.014344-3.608418 48.563291-53.825568-0.751754-93.969217-52.32206-42.699612-156.214427 6.916134-155.312322 78.633441 0.902104 71.717307 41.947859 121.032352 120.73165 120.882001 138.322688-0.451052 144.036016-79.385195 225.826823-107.500785 106.899381-36.835933 236.501726-40.895403 322.652704 51.570307 59.839597 64.35012 139.525494 104.042717 242.515756 139.976545-169.144591 21.800858-272.585905-126.74568-417.975078-144.336717-91.262904-10.975605-170.497748 27.664538-264.918017 105.997277-105.395874 87.504135-265.218718 136.067426-420.831742 35.933829 114.867971-63.899068 50.818553-189.592293-6.314732-253.190659-40.895403-45.706627-137.570934-77.280284-210.190345-34.731023zM687.403617 636.434714c82.993613 187.487382 204.477017 234.396815 332.876555 261.309599 160.8753 33.678567 302.205002 14.433672 455.713116-27.814888 163.431262-45.105224 262.813107-168.693539 337.687778-179.518793 85.549575-12.479112 154.710919 18.19244 260.106794 64.500471 87.203434 38.339441 198.312636 18.19244 304.309912-35.332426-205.22877 44.503821-302.656055-26.010679-401.436495-90.51115-68.108889-44.503821-187.788084-65.101874-303.70851 29.168045-97.126583 79.084493-145.689874 121.784105-301.6036 134.71427-80.738351 6.765784-139.224792-17.741388-208.837188-64.500471-77.129933 24.356821-124.490419 17.891739-157.266882-48.863993-30.521202-62.094859 10.223851-145.389173 86.000628-141.329702 39.993299 2.10491 64.199769 85.850277 36.084179 95.472724 4.510522-39.842948-23.605067-64.35012-58.035388-57.885037-50.3675 9.472097-50.066799 73.972568-26.762433 106.147627 46.007329 63.598366 186.885979-8.569993 167.941785-98.028687-26.461732-124.64077-138.924091-178.015285-247.778032-130.80515-104.64412-176.361427-306.865876-66.45503-309.421838 25.559627-93.367814 14.433672-114.416919 92.916762-93.818867 143.284262 20.598052 50.3675 76.979583 65.703277 128.098837 14.584023z m1133.945338-246.875927c-39.842948-38.038739-8.11894-79.535545 19.695947-97.126583-44.954873-24.657523-89.458695 33.828918-86.301329 81.189403 2.856664 42.398911 21.800858 84.797822 70.815202 85.699926 63.448015 1.353157 192.448957 20.147 263.264159 113.364464-24.958224-72.619411-81.339754-131.556904-131.256202-138.021986-49.766097-6.465082-73.371165-30.821903-74.42362-66.154329-1.052455-32.626112 26.311381-61.343105 51.570306-63.297665 32.776463-2.405612 47.510836 17.891739 45.556277 55.930478-10.374202-12.479112-15.636478-33.678567-35.633128-32.475761-30.821903 1.804209-50.517851 29.318396-35.783477 59.388545s70.664851 31.423306 99.682545 12.930164c24.657523-15.636478 30.521202-50.668202 21.951209-86.000627-8.569993-35.332426-52.32206-67.958538-110.357448-57.283635-62.245209 11.577008-116.822531 90.962202-98.780441 131.556904z" fill="url(#cloud2-grad)" />
</svg>
