<?xml version="1.0" standalone="no"?><!DOCTYPE svg PUBLIC "-//W3C//DTD SVG 1.1//EN" "http://www.w3.org/Graphics/SVG/1.1/DTD/svg11.dtd"><svg t="1766128158521" class="icon" viewBox="0 0 1337 1024" version="1.1" xmlns="http://www.w3.org/2000/svg" p-id="9865" xmlns:xlink="http://www.w3.org/1999/xlink" width="261.1328125" height="200"><path d="M106.852174 358.845217c-22.26087 28.493913 33.836522 13.356522 0 0zM32.946087 813.857391c5.342609 3.561739 22.26087 15.137391 24.932174 2.671305-3.561739-4.452174-23.151304-14.246957-24.932174-2.671305z m106.852174 13.356522c23.151304 7.123478 46.302609-12.466087 42.740869-43.631304-33.836522-58.768696-97.057391 26.713043-42.740869 43.631304zM356.173913 242.198261c4.452174-14.246957-8.904348-29.384348-16.027826-31.165218 7.123478 9.794783 6.233043 23.151304 16.027826 31.165218z m89.043478 108.633043c-6.233043-11.575652-6.233043-26.713043-10.685217-39.17913 0-8.904348 3.561739-8.013913 2.671304-16.918261-13.356522-5.342609-8.904348-37.398261-21.370435-30.274783 9.794783 27.603478 8.904348 71.234783 29.384348 86.372174z m333.913044-14.246956c-7.123478 0.890435-22.26087 8.013913-18.699131 16.918261 6.233043-6.233043 15.137391-6.233043 18.699131-16.918261z m-32.055652 162.949565c1.78087-8.904348-1.78087-15.137391-6.233044-20.48 0 8.013913-1.78087 16.918261 6.233044 20.48z m-45.412174 368.64c4.452174-7.123478-0.890435-9.794783-6.233044-12.466087-1.78087 5.342609 0 9.794783 6.233044 12.466087z m609.947826-604.605217c-16.918261-8.904348-29.384348 8.013913-40.96 15.137391-64.111304 36.507826-138.907826 50.754783-200.347826 90.824348-37.398261 16.918261-77.467826 24.932174-116.646957 40.069565-22.26087 8.904348-41.850435 23.151304-64.111304 31.165217-33.836522 12.466087-69.453913 20.48-99.728696 35.617392-28.493913 14.246957-86.372174 56.097391-110.413913 21.370434 24.041739-38.288696 15.137391-95.276522 56.097391-119.31826-12.466087-1.78087-9.794783 7.123478-22.260869-1.78087-15.137391 10.685217-23.151304 35.617391-41.850435 40.96-8.013913-10.685217-31.165217-12.466087-36.507826-24.932174 32.055652-28.493913 65.001739-78.358261 69.453913-128.222609-22.26087 20.48-29.384348 79.248696-56.987826 97.947827-4.452174-3.561739-6.233043-8.904348-15.137391-9.794783-24.041739 15.137391-43.631304 40.069565-73.906087 43.631304-3.561739-6.233043 1.78087-8.904348 4.452174-14.246956-7.123478-4.452174-5.342609 7.123478-11.575653 4.452174 2.671304-23.151304-9.794783-48.973913-9.794782-75.686957s16.027826-58.768696-6.233044-77.467826c-24.041739 17.808696-1.78087 55.206957-7.123478 85.481739-0.890435 6.233043-6.233043 11.575652-8.013913 17.808696-4.452174 17.808696 0.890435 43.631304-16.918261 51.645217-14.246957-21.370435-37.398261-41.850435-46.302609-66.782608-3.561739-8.904348 0-24.932174-11.575652-26.713044 8.013913 34.726957 10.685217 71.234783 24.041739 103.290435-25.822609 46.302609-61.44 16.027826-84.591304-11.575652-8.904348-10.685217-18.69913-17.808696-24.041739-23.151305-8.013913-9.794783-9.794783-25.822609-16.918261-36.507826-12.466087-18.69913-27.603478-32.946087-32.055652-46.302608-2.671304-8.013913 0.890435-17.808696-1.78087-26.713044-2.671304-10.685217-15.137391-22.26087-22.260869-35.617391-8.013913-15.137391-11.575652-33.836522-19.589565-45.412174-6.233043-8.904348-17.808696-12.466087-24.04174-20.48-23.151304-27.603478-33.836522-65.001739-59.65913-81.029565-8.904348 0-14.246957 7.123478-16.918261 20.48 9.794783 25.822609 34.726957 44.521739 44.521739 71.234782 2.671304 8.013913 0 18.69913 4.452174 27.603478 7.123478 12.466087 20.48 15.137391 30.274783 24.932174 12.466087 11.575652 16.918261 32.055652 28.493913 48.083479 6.233043 8.013913 16.027826 12.466087 22.260869 19.589565 33.836522 42.74087 48.083478 101.509565 79.248696 138.907826-3.561739 14.246957 7.123478 31.165217-6.233043 44.521739-8.904348-6.233043-23.151304-8.904348-24.932174-18.69913-12.466087 27.603478-32.946087 40.069565-59.659131 40.069565-21.370435-16.918261-52.535652-46.302609-81.029565-46.302609-9.794783 22.26087 16.918261 26.713043 30.274783 35.617391 32.946087 20.48 72.125217 52.535652 55.206956 87.262609 3.561739 6.233043 12.466087 0.890435 21.370435 7.123478 6.233043 14.246957-9.794783 35.617391-18.699131 42.74087-32.055652 26.713043-101.509565-5.342609-108.633043 40.069565 44.521739 48.083478 93.495652-32.946087 149.593043 1.78087 10.685217 18.69913 18.69913 50.754783-12.466086 55.206956-4.452174 12.466087 16.918261 12.466087 12.466086 24.932174 0.890435 9.794783-8.013913 2.671304-8.013913 9.794783 3.561739 1.78087 8.013913 2.671304 5.342609 7.123478-4.452174 33.836522-40.96 75.686957-9.794782 87.262609 14.246957-14.246957 15.137391-54.316522 45.412173-37.398261 5.342609 28.493913-20.48 44.521739-27.603478 71.234783-8.904348 10.685217-39.17913 35.617391-21.370435 49.864347 38.288696-23.151304 48.083478-102.4 94.386087-109.523478 10.685217 19.589565 9.794783 63.22087 5.342609 89.933913-3.561739 22.26087-39.17913 81.92-13.356522 106.852174 24.932174 24.932174 57.878261-18.69913 62.330435-41.850435 7.123478-37.398261-39.17913-73.015652-31.165217-113.085217 1.78087-10.685217 9.794783-30.274783 17.808695-40.96 8.013913-9.794783 40.96-34.726957 59.659131-40.069565 22.26087-7.123478 39.17913-12.466087 63.220869-2.671305 35.617391 35.617391 75.686957 62.330435 92.605218 106.852174 6.233043 16.027826 2.671304 42.74087 26.713043 44.521739 13.356522-14.246957 0-31.165217-10.685217-40.069565-7.123478-25.822609-17.808696-49.864348-31.165218-72.125217 0.890435-9.794783 2.671304-19.589565 7.123479-31.165218 11.575652-6.233043 24.041739-12.466087 30.274782-29.384347 5.342609-2.671304 8.904348 5.342609 18.699131 6.233043 6.233043-2.671304 8.904348-13.356522 16.918261-12.466087 39.17913 6.233043 64.111304 23.151304 99.728695 34.726957 32.055652 10.685217 42.74087 38.288696 69.453913 50.754782 28.493913 13.356522 39.17913 24.041739 63.22087 28.493913 12.466087-6.233043 13.356522-18.69913 9.794782-30.274782-34.726957-19.589565-41.850435-50.754783-80.13913-56.987826-8.904348-1.78087-18.69913 3.561739-28.493913 0.890434-31.165217-8.013913-56.987826-37.398261-89.933913-49.864348 0-18.69913-17.808696-28.493913-31.165217-40.96 3.561739-7.123478 9.794783-6.233043 8.013913-16.027826-2.671304-5.342609-13.356522-7.123478-13.356522-14.246956 5.342609-3.561739 4.452174-19.589565 14.246956-13.356522 5.342609-8.013913-9.794783-8.904348-0.890434-13.356522 25.822609-14.246957 57.878261 27.603478 79.248695 9.794783-2.671304-32.946087-66.782609-10.685217-69.453913-40.069565 9.794783-3.561739 26.713043 6.233043 31.165218-8.013913-17.808696-8.013913-33.836522 6.233043-52.535653 1.780869-10.685217-2.671304-19.589565-13.356522-30.274782-17.808695-4.452174-1.78087-29.384348 0.890435-26.713044-13.356522 4.452174 0.890435 9.794783 10.685217 14.246957 4.452174-6.233043-3.561739-16.027826-6.233043-16.918261-13.356522 13.356522-16.027826 33.836522-17.808696 53.426087-21.370435 69.453913-44.521739 146.921739-75.686957 224.389565-104.180869 2.671304 0.890435 1.78087 2.671304 3.561739 3.561739-0.890435 3.561739-0.890435 5.342609 0 8.013913 10.685217 3.561739-0.890435-6.233043 0.890435-9.794783 29.384348-26.713043 69.453913-27.603478 107.742609-38.288695 40.069565-10.685217 83.70087-40.96 124.660869-58.768696 30.274783-13.356522 59.65913-29.384348 88.153044-41.850435 16.918261-0.890435 40.069565 1.78087 32.946087-22.260869zM237.746087 46.302609C226.170435 32.946087 225.28 13.356522 213.704348 0c2.671304 16.918261 13.356522 40.069565 24.041739 46.302609z m61.44 107.742608c-5.342609-5.342609-2.671304-16.027826-11.575652-19.589565-0.890435 8.013913 8.013913 20.48 11.575652 19.589565z m34.726956 512.890435c-12.466087 0.890435-38.288696-2.671304-40.069565 5.342609 12.466087-2.671304 30.274783 3.561739 40.069565-5.342609zM0 574.330435c10.685217 0.890435 16.918261-1.78087 16.918261-12.466087C6.233043 560.973913 0 564.535652 0 574.330435z m1308.048696 110.413913c6.233043 5.342609 9.794783 1.78087 19.589565 1.780869 3.561739-8.013913 9.794783-13.356522 9.794782-24.932174-16.027826-5.342609-30.274783 6.233043-29.384347 23.151305z" fill="#ffffff" p-id="9866"></path></svg>