<?xml version="1.0" standalone="no"?><!DOCTYPE svg PUBLIC "-//W3C//DTD SVG 1.1//EN" "http://www.w3.org/Graphics/SVG/1.1/DTD/svg11.dtd"><svg t="1766128025245" class="icon" viewBox="0 0 1664 1024" version="1.1" xmlns="http://www.w3.org/2000/svg" p-id="7344" xmlns:xlink="http://www.w3.org/1999/xlink" width="325" height="200"><path d="M691.813985 201.894381c-41.508839-22.138048-117.377773-63.531584-215.500056-54.883909a321.462898 321.462898 0 0 0-144.012612 49.925909A513.325977 513.325977 0 0 1 569.36291 25.481815a518.860489 518.860489 0 0 1 286.756896-9.685396c71.141538 16.142326 59.726607 27.787862 171.569869 66.76005A1273.168337 1273.168337 0 0 0 1317.32913 149.89303c112.073866 7.725256 135.480239-14.412791 225.992568 7.955861a489.919604 489.919604 0 0 1 121.067447 47.735165c-132.021169-13.720977-219.074429 12.567954-275.803175 40.240513-23.060466 11.530233-90.858237 49.118793-166.035356 98.006982-37.703862 24.444094-65.837631 44.5067-112.650378 61.110235-33.898885 11.530233-67.913073 24.213489-112.535074 21.215629-59.496003-4.035582-128.331494-34.590699-160.73145-92.241865a110.690238 110.690238 0 0 1-16.83414-59.034793c1.268326-39.433397 27.096048-73.562887 60.533724-94.778516a113.226889 113.226889 0 0 1 97.545772-9.108884A86.476748 86.476748 0 0 1 1031.725256 230.604662c7.494652 27.21135-12.567954 50.96363-35.282513 59.611305a43.123072 43.123072 0 0 1-57.651165-23.060466 21.676838 21.676838 0 0 0-29.17149-9.454792 21.330931 21.330931 0 0 0-9.570094 28.825583 86.59205 86.59205 0 0 0 111.727959 43.814886c40.471118-15.33521 75.868934-59.496003 61.686747-111.036145a128.908006 128.908006 0 0 0-80.711632-87.975678 157.848891 157.848891 0 0 0-136.517959 13.029163 169.494426 169.494426 0 0 0-79.328004 116.916564A451.63923 451.63923 0 0 0 691.813985 201.894381z" fill="#e6e6e6" p-id="7345"></path><path d="M1136.880982 502.948767a275.918478 275.918478 0 0 1-57.651166 17.410652 323.884247 323.884247 0 0 1-110.690237-5.188605c-73.793492-12.913861-129.59982-60.072514-190.594753-111.612656C709.109335 345.906992 631.164959 279.838757 507.330256 250.551965c-225.531359-53.615584-405.6336 92.241865-477.582255 249.744848C-57.651165 693.889427 60.764328 929.567391 220.919266 999.786511c111.497354 48.772886 224.378336 9.108884 229.797545 7.148744 20.869722-7.725256 128.908006-47.50456 167.534287-155.773449 48.657584-135.826146-49.003491-276.725594-117.608378-307.741921a183.446008 183.446008 0 0 0-140.092332-4.266186c-14.297489 5.41921-77.137259 29.17149-102.157865 94.893818-18.102466 47.619863-13.83628 110.574935 25.481815 153.121495a122.451075 122.451075 0 0 0 86.130842 41.393537c36.781444 0 87.05326-18.102466 102.157865-62.955072 14.297489-42.661862-7.264047-97.084563-40.817025-106.539354-31.016327-8.762977-75.17712 20.177908-79.443306 29.748001a27.21135 27.21135 0 0 1-14.066885 13.144466 24.674699 24.674699 0 0 1-19.601396-0.691814c-11.530233-6.111024-13.605675-23.060466-12.337349-33.207071 5.188605-38.626281 89.935818-79.673911 146.318657-54.538003a129.830425 129.830425 0 0 1 69.181399 72.755771 131.214052 131.214052 0 0 1 8.993582 50.271816 139.51582 139.51582 0 0 1-11.530233 49.695305 163.72931 163.72931 0 0 1-88.436888 82.210562 160.039635 160.039635 0 0 1-61.456142 10.146605c-67.451864-2.306047-134.788425-52.001351-161.423264-119.914424a196.821079 196.821079 0 0 1 4.612094-145.280937c34.590699-83.59419 112.76568-114.610517 130.406936-121.067447 128.792704-47.158653 243.518523 45.544421 250.090755 51.078932a277.878617 277.878617 0 0 1 93.9714 172.953496 157.618286 157.618286 0 0 1 71.25684-33.091769c57.651165-10.953721 114.495215 9.108884 139.169914 48.772886 3.804977 6.111024 36.204932 49.580002 21.676838 102.619075C903.970274 889.096273 845.511992 931.642833 795.586083 922.418647c-31.131629-5.880419-63.877491-32.976467-63.531585-59.496003 0-10.723117 5.649814-27.096048 18.217769-30.67042a26.519536 26.519536 0 0 1 26.404233 9.108884c0.922419 1.153023 1.844837 0 4.150884 8.647675a28.018466 28.018466 0 0 0 23.060466 23.060466 61.110235 61.110235 0 0 0 56.152236-27.903164 63.416282 63.416282 0 0 0 8.071163-16.83414 79.443306 79.443306 0 0 0-14.297489-70.21912c-30.093908-36.204932-101.235446-33.552978-139.631123 0a102.157865 102.157865 0 0 0-32.399955 62.147956c-17.064745 96.96926 32.515257 173.991217 126.832564 196.013963a181.255264 181.255264 0 0 0 173.530008-54.653305c6.91814-7.609954 48.081072-52.577863 46.120932-112.419773-2.075442-84.401306-40.125211-102.157865-28.364373-152.775588 17.871861-76.67605 134.096611-59.3807 229.797545-178.142101 41.393537-51.309537 72.525166-120.260331 65.722329-124.987727-2.536651-1.729535-9.685396 5.534512-23.75228 17.987164-25.71242 22.945164-75.868934 66.990654-134.788425 91.665353z" fill="#e6e6e6" p-id="7346"></path></svg>