<?xml version="1.0" standalone="no"?><!DOCTYPE svg PUBLIC "-//W3C//DTD SVG 1.1//EN" "http://www.w3.org/Graphics/SVG/1.1/DTD/svg11.dtd"><svg t="1766128012370" class="icon" viewBox="0 0 1674 1024" version="1.1" xmlns="http://www.w3.org/2000/svg" p-id="7123" xmlns:xlink="http://www.w3.org/1999/xlink" width="326.953125" height="200"><path d="M193.086326 168.098064c113.163157-256.728356 390.581791-188.746012 453.180441-0.844502 171.011487 9.395076 255.989417 175.550681 324.816262 258.945172 152.010211 181.778877 351.206924 194.65752 566.871411 152.010211-241.105084 67.348968-378.653212 43.597373-551.142576-46.447565-38.424803-19.740215-165.838917-124.986173-192.757393-154.015901-93.634067-99.651138-258.522921-79.171985-288.502712 73.577165 68.404595-120.763667 163.516539-119.28579 241.844023-67.137843 54.153638 35.996862 138.075941 152.960275 288.924963 205.424909C929.491347 585.915018 823.400887 525.955435 752.990602 472.751861c-83.077803-63.337588-159.294033 10.345139-160.983036 52.781323-14.250957 43.702936 32.30217 94.584131 83.816742 63.44315 14.989896-13.723144 19.740215-26.285099 8.022761-55.209264-9.711763-24.596097-37.791427-19.634652-50.986758-6.967134 18.3679-38.847054 67.348968-59.959583 109.468464-24.701659 222.209371 185.262444 594.212136 209.43629 932.540417 75.371729-739.360775 378.230962-752.978356-30.929855-916.494895 249.655659-30.402042 38.108115-107.146086 0.844501-41.908371-71.888163 29.874229 44.336311 72.099287-22.062593 27.235163-58.692831-37.89699-31.140981-88.56706-24.173846-115.27441 8.656137-18.790151 22.695969 8.022761 76.110668 41.169432 60.170708-31.563231 120.235854 68.721283 200.146777 151.376835 118.969103 110.629653-109.890715 258.206233-86.666933 396.809988-16.045522-318.271379-54.787013-344.873166 141.559509-468.592587 153.488087-102.50133 9.606201-147.682142-11.084078-216.297863-95.111944-146.837641 3.694693-208.802914-76.427356-193.601893-171.855988-421.089396-41.380557-426.684216-502.689322-146.204265-586.717188z" fill="#e6e6e6" p-id="7124"></path></svg>